Coordinates
version=1
nRows=25
nColumns=33
inDegrees=yes

Units are S.I. units (second, meters, Newtons, ...)
Angles are in degrees.

endheader
time	ground_thorax_rot_x	ground_thorax_rot_y	ground_thorax_rot_z	ground_thorax_tx	ground_thorax_ty	ground_thorax_tz	clav_prot_r	clav_elev_r	scapula_abduction_r	scapula_elevation_r	scapula_upward_rot_r	scapula_winging_r	shoulder_elv_r	plane_of_elev_r	axial_rot_r	elbow_flexion_r	pro_sup_r	wrist_flex_r	wrist_dev_r	clav_prot_l	clav_elev_l	scapula_abduction_l	scapula_elevation_l	scapula_upward_rot_l	scapula_winging_l	shoulder_elv_l	plane_of_elev_l	axial_rot_l	elbow_flexion_l	pro_sup_l	wrist_flex_l	wrist_dev_l	
10.5900	29.829671	27.620021	40.582046	-49.913278	833.536304	-38.478753	12.876052	34.187360	29.079253	45.000000	-45.000000	1713.201434	432.032556	23.494605	-174.655178	2517.357584	156.613820	13.457145	15.592613	-6.722203	-45.000000	-39.447642	45.000000	-45.000000	4062.773858	-4602.172091	27.273800	37.103569	2871.559412	-314.816765	14.947368	-20.264538	
10.6000	29.705789	27.698684	40.864802	-47.546852	832.626933	-38.376486	12.913624	34.226668	29.182592	45.000000	-45.000000	1713.313282	431.965190	23.505789	-174.787457	2517.399364	157.261353	13.433223	15.580641	-6.821708	-45.000000	-39.371075	45.000000	-45.000000	4062.641753	-4602.225337	27.287082	37.277154	2871.527191	-314.619408	14.914852	-20.118022	
10.6100	29.580192	27.776180	41.142070	-45.156119	831.698518	-38.267612	12.950960	34.268944	29.282162	45.000000	-45.000000	1713.425415	431.897055	23.515399	-174.903540	2517.441049	157.947720	13.419701	15.564838	-6.926093	-45.000000	-39.291943	45.000000	-45.000000	4062.507934	-4602.282654	27.296893	37.435662	2871.493874	-314.420376	14.876823	-19.973064	
10.6200	29.451868	27.853745	41.411095	-42.742417	830.749324	-38.154685	12.982132	34.312527	29.371433	45.000000	-45.000000	1713.541864	431.833020	23.521893	-175.000055	2517.478867	158.668592	13.414043	15.548718	-7.029501	-45.000000	-39.214344	45.000000	-45.000000	4062.371219	-4602.343872	27.304126	37.576674	2871.461743	-314.221657	14.834107	-19.829135	
10.6300	29.317375	27.935634	41.678404	-40.307240	829.777499	-38.039800	13.013203	34.354052	29.446292	45.000000	-45.000000	1713.662561	431.773987	23.524194	-175.079935	2517.513455	159.415465	13.413414	15.532030	-7.133142	-45.000000	-39.137938	45.000000	-45.000000	4062.230605	-4602.407777	27.306532	37.695915	2871.430288	-314.025280	14.786725	-19.683475	
10.6400	29.178245	28.017284	41.940642	-37.852575	828.781584	-37.923908	13.039377	34.395980	29.509124	45.000000	-45.000000	1713.788701	431.719935	23.523546	-175.139231	2517.545532	160.181383	13.416326	15.515254	-7.236728	-45.000000	-39.063199	45.000000	-45.000000	4062.087115	-4602.474498	27.304362	37.792551	2871.400196	-313.833896	14.735865	-19.536627	
10.6500	29.036021	28.098278	42.202388	-35.380861	827.760534	-37.806995	13.072266	34.438184	29.565039	45.000000	-45.000000	1713.915135	431.667108	23.524141	-175.182804	2517.580078	160.959637	13.422467	15.493739	-7.347971	-45.000000	-38.984734	45.000000	-45.000000	4061.941989	-4602.542995	27.295832	37.866900	2871.370586	-313.649517	14.681715	-19.387462	
10.6600	28.886510	28.179649	42.466393	-32.895015	826.713831	-37.688295	13.105108	34.479734	29.608891	45.000000	-45.000000	1714.046723	431.620351	23.521938	-175.203944	2517.612816	161.743269	13.431239	15.468047	-7.462417	-45.000000	-38.906879	45.000000	-45.000000	4061.795092	-4602.611850	27.278193	37.913863	2871.341527	-313.474199	14.624255	-19.234470	
10.6700	28.731480	28.264402	42.737587	-30.398425	825.641395	-37.566885	13.150784	34.520907	29.644246	45.000000	-45.000000	1714.176210	431.574338	23.519944	-175.208710	2517.649375	162.524581	13.441934	15.434207	-7.588869	-45.000000	-38.822573	45.000000	-45.000000	4061.646900	-4602.681659	27.251296	37.934142	2871.313564	-313.309565	14.562747	-19.077322	
10.6800	28.570552	28.350047	43.009447	-27.895011	824.543706	-37.441911	13.191327	34.562092	29.661787	45.000000	-44.999999	1714.311964	431.536568	23.515146	-175.187162	2517.678925	163.298104	13.454218	15.398244	-7.716013	-45.000000	-38.739583	45.000000	-45.000000	4061.496879	-4602.754826	27.215399	37.923316	2871.287304	-313.156310	14.497909	-18.917342	
10.6900	28.406406	28.440622	43.283400	-25.388947	823.421670	-37.312916	13.243580	34.601173	29.660731	45.000000	-44.999999	1714.443398	431.502254	23.516321	-175.149354	2517.705257	164.057542	13.467242	15.357560	-7.852248	-45.000000	-38.650777	45.000000	-45.000000	4061.344480	-4602.832976	27.173273	37.883125	2871.262674	-313.013832	14.427869	-18.754137	
10.7000	28.240055	28.529028	43.555004	-22.884518	822.276693	-37.179827	13.279174	34.637843	29.649417	45.000000	-44.999998	1714.583034	431.472070	23.511152	-175.088737	2517.727471	164.799586	13.478876	15.318039	-7.981765	-45.000000	-38.564397	45.000000	-45.000000	4061.197356	-4602.917337	27.125662	37.813223	2871.236226	-312.880925	14.357774	-18.592785	
10.7100	28.078962	28.613450	43.822036	-20.385968	821.110597	-37.042894	13.322587	34.674426	29.651727	45.000000	-44.999996	1714.713763	431.428403	23.501564	-175.017202	2517.758032	165.523931	13.488271	15.275898	-8.122513	-45.000000	-38.464637	45.000000	-45.000000	4061.056233	-4603.006141	27.079691	37.724384	2871.205382	-312.755306	14.288176	-18.435208	
10.7200	27.927383	28.683550	44.072195	-17.897611	819.925645	-36.902533	13.351557	34.715506	29.668000	45.000000	-44.999993	1714.850848	431.379093	23.481284	-174.919149	2517.788965	166.233931	13.494800	15.237553	-8.261662	-45.000000	-38.360563	45.000000	-45.000000	4060.921152	-4603.099366	27.034680	37.617322	2871.168565	-312.634393	14.221841	-18.284290	
10.7300	27.774116	28.756347	44.321519	-15.423392	818.724097	-36.759270	13.395360	34.748797	29.680464	45.000000	-44.999987	1714.982168	431.324786	23.461372	-174.814702	2517.824798	166.925596	13.497085	15.196017	-8.409882	-45.000000	-38.247618	45.000000	-45.000000	4060.786709	-4603.192951	26.989821	37.491306	2871.126217	-312.515224	14.150503	-18.130982	
10.7400	27.625929	28.818768	44.562816	-12.966837	817.507952	-36.613673	13.418909	34.786824	29.705550	45.000000	-44.999977	1715.120519	431.266149	23.432301	-174.695089	2517.867689	167.601344	13.495343	15.154500	-8.554097	-45.000000	-38.133245	45.000000	-45.000000	4060.664278	-4603.290078	26.943848	37.352488	2871.080870	-312.397195	14.081984	-17.985669	
10.7500	27.478345	28.883717	44.804940	-10.530884	816.278604	-36.466228	13.454347	34.824008	29.745148	45.000000	-44.999959	1715.246821	431.194454	23.395212	-174.575127	2517.919147	168.261811	13.490603	15.108429	-8.710924	-45.000000	-38.004919	45.000000	-45.000000	4060.547362	-4603.387919	26.900085	37.206241	2871.033569	-312.277717	14.011707	-17.843259	
10.7600	27.337088	28.942896	45.036202	-8.118047	815.036810	-36.317258	13.474518	34.869421	29.789859	45.000000	-44.999925	1715.378616	431.124706	23.348518	-174.436492	2517.966973	168.909478	13.482881	15.064524	-8.864702	-45.000000	-37.873913	45.000000	-45.000000	4060.435574	-4603.490714	26.854367	37.049214	2870.989127	-312.155941	13.942117	-17.707784	
10.7700	27.186161	29.016578	45.275662	-5.730114	813.782501	-36.166851	13.506330	34.904603	29.814685	45.000000	-44.999868	1715.506461	431.057540	23.300558	-174.302767	2518.015006	169.537132	13.469337	15.017676	-9.022239	-45.000000	-37.738962	45.000000	-45.000000	4060.321927	-4603.594700	26.805672	36.874029	2870.947064	-312.029528	13.864187	-17.567247	
10.7800	27.040490	29.085878	45.506048	-3.368446	812.515053	-36.014902	13.519050	34.944718	29.836570	45.000000	-44.999758	1715.641491	430.993686	23.248785	-174.160952	2518.063750	170.146369	13.450072	14.972732	-9.173066	-45.000000	-37.604316	45.000000	-45.000000	4060.214337	-4603.704914	26.756029	36.684957	2870.909656	-311.898911	13.786768	-17.433006	
10.7900	26.893579	29.160947	45.737825	-1.034095	811.233453	-35.861190	13.542592	34.978347	29.850751	45.000000	-44.999583	1715.770573	430.925189	23.196801	-174.025279	2518.116253	170.735337	13.424503	14.926432	-9.330407	-45.000000	-37.462522	45.000000	-45.000000	4060.106937	-4603.815822	26.707093	36.483137	2870.872647	-311.761054	13.705150	-17.297028	
10.8000	26.750694	29.235098	45.958707	1.271792	809.936697	-35.705531	13.554033	35.013393	29.836232	45.000000	-44.999205	1715.910710	430.871660	23.149660	-173.873538	2518.156056	171.303408	13.393406	14.884320	-9.479840	-45.000000	-37.326522	45.000000	-45.000000	4059.995593	-4603.930382	26.654469	36.263481	2870.839642	-311.615509	13.620482	-17.161316	
10.8100	26.597471	29.324524	46.191228	3.548160	808.623865	-35.547890	13.571256	35.032064	29.779540	45.000000	-44.998708	1716.052895	430.827727	23.112383	-173.729906	2518.192845	171.841718	13.354069	14.840410	-9.625353	-45.000000	-37.194089	45.000000	-45.000000	4059.881838	-4604.045582	26.595349	36.022825	2870.809325	-311.460492	13.525907	-17.017401	
10.8200	26.449091	29.412294	46.417521	5.793539	807.294602	-35.388554	13.571675	35.054519	29.707819	45.000000	-44.997317	1716.199675	430.788635	23.078049	-173.578387	2518.224319	172.352715	13.310055	14.797410	-9.764574	-45.000000	-37.065277	45.000000	-45.000000	4059.772937	-4604.164157	26.534411	35.768663	2870.782832	-311.296832	13.433096	-16.879650	
10.8300	26.302468	29.501700	46.653412	8.006211	805.949227	-35.228205	13.576935	35.073539	29.644406	45.000000	-44.996224	1716.338287	430.739748	23.041377	-173.436064	2518.264969	172.837229	13.260010	14.751301	-9.910147	-45.000000	-36.929677	45.000000	-45.000000	4059.674847	-4604.281657	26.468554	35.508791	2870.757974	-311.123164	13.339679	-16.745513	
